<svg width="28" height="31" viewBox="0 0 28 31" fill="none" xmlns="http://www.w3.org/2000/svg">
<path fill-rule="evenodd" clip-rule="evenodd" d="M14.4199 6.40771C11.225 6.40771 7.91992 8.81884 7.91992 12.8535C7.91992 17.1324 13.895 23.107 14.1496 23.3591C14.2211 23.4304 14.3186 23.4702 14.4199 23.4702C14.5212 23.4702 14.6187 23.4304 14.6902 23.3591C14.9449 23.107 20.9199 17.1324 20.9199 12.8535C20.9199 8.81884 17.6149 6.40771 14.4199 6.40771ZM14.4199 15.1285C13.1547 15.1285 12.1258 14.1082 12.1258 12.8535C12.1258 11.5989 13.1547 10.5785 14.4199 10.5785C15.6851 10.5785 16.714 11.5989 16.714 12.8535C16.714 14.1082 15.6851 15.1285 14.4199 15.1285Z" fill="#454545"/>
</svg>
