<svg width="123" height="32" viewBox="0 0 123 32" fill="none" xmlns="http://www.w3.org/2000/svg">
<g clip-path="url(#clip0_232_1890)">
<path d="M5.321 22.204C4.369 22.204 3.45667 22.0793 2.584 21.83C1.71133 21.5693 1.00867 21.235 0.476 20.827L1.411 18.753C1.921 19.1157 2.52167 19.416 3.213 19.654C3.91567 19.8807 4.624 19.994 5.338 19.994C5.882 19.994 6.31833 19.943 6.647 19.841C6.987 19.7277 7.23633 19.5747 7.395 19.382C7.55367 19.1893 7.633 18.9683 7.633 18.719C7.633 18.4017 7.50833 18.1523 7.259 17.971C7.00967 17.7783 6.681 17.6253 6.273 17.512C5.865 17.3873 5.41167 17.274 4.913 17.172C4.42567 17.0587 3.93267 16.9227 3.434 16.764C2.94667 16.6053 2.499 16.4013 2.091 16.152C1.683 15.9027 1.34867 15.574 1.088 15.166C0.838667 14.758 0.714 14.2367 0.714 13.602C0.714 12.922 0.895333 12.3043 1.258 11.749C1.632 11.1823 2.18733 10.7347 2.924 10.406C3.672 10.066 4.607 9.896 5.729 9.896C6.477 9.896 7.21367 9.98667 7.939 10.168C8.66433 10.338 9.30467 10.5987 9.86 10.95L9.01 13.041C8.45467 12.7237 7.89933 12.4913 7.344 12.344C6.78867 12.1853 6.24467 12.106 5.712 12.106C5.17933 12.106 4.743 12.1683 4.403 12.293C4.063 12.4177 3.81933 12.582 3.672 12.786C3.52467 12.9787 3.451 13.2053 3.451 13.466C3.451 13.772 3.57567 14.0213 3.825 14.214C4.07433 14.3953 4.403 14.5427 4.811 14.656C5.219 14.7693 5.66667 14.8827 6.154 14.996C6.65267 15.1093 7.14567 15.2397 7.633 15.387C8.13167 15.5343 8.585 15.7327 8.993 15.982C9.401 16.2313 9.72967 16.56 9.979 16.968C10.2397 17.376 10.37 17.8917 10.37 18.515C10.37 19.1837 10.183 19.7957 9.809 20.351C9.435 20.9063 8.874 21.354 8.126 21.694C7.38933 22.034 6.45433 22.204 5.321 22.204ZM17.0748 22V20.215L16.9048 19.824V16.628C16.9048 16.0613 16.7292 15.6193 16.3778 15.302C16.0378 14.9847 15.5108 14.826 14.7968 14.826C14.3095 14.826 13.8278 14.9053 13.3518 15.064C12.8872 15.2113 12.4905 15.4153 12.1618 15.676L11.2098 13.823C11.7085 13.4717 12.3092 13.1997 13.0118 13.007C13.7145 12.8143 14.4285 12.718 15.1538 12.718C16.5478 12.718 17.6302 13.0467 18.4008 13.704C19.1715 14.3613 19.5568 15.387 19.5568 16.781V22H17.0748ZM14.2868 22.136C13.5728 22.136 12.9608 22.017 12.4508 21.779C11.9408 21.5297 11.5498 21.1953 11.2778 20.776C11.0058 20.3567 10.8698 19.8863 10.8698 19.365C10.8698 18.821 11.0002 18.345 11.2608 17.937C11.5328 17.529 11.9578 17.2117 12.5358 16.985C13.1138 16.747 13.8675 16.628 14.7968 16.628H17.2278V18.175H15.0858C14.4625 18.175 14.0318 18.277 13.7938 18.481C13.5672 18.685 13.4538 18.94 13.4538 19.246C13.4538 19.586 13.5842 19.858 13.8448 20.062C14.1168 20.2547 14.4852 20.351 14.9498 20.351C15.3918 20.351 15.7885 20.249 16.1398 20.045C16.4912 19.8297 16.7462 19.518 16.9048 19.11L17.3128 20.334C17.1202 20.9233 16.7688 21.371 16.2588 21.677C15.7488 21.983 15.0915 22.136 14.2868 22.136ZM21.357 22V12.854H24.009V22H21.357ZM22.683 11.579C22.1957 11.579 21.799 11.4373 21.493 11.154C21.187 10.8707 21.034 10.5193 21.034 10.1C21.034 9.68067 21.187 9.32933 21.493 9.046C21.799 8.76267 22.1957 8.621 22.683 8.621C23.1703 8.621 23.567 8.757 23.873 9.029C24.179 9.28967 24.332 9.62967 24.332 10.049C24.332 10.491 24.179 10.8593 23.873 11.154C23.5783 11.4373 23.1817 11.579 22.683 11.579ZM31.2763 22.136C30.4716 22.136 29.7803 21.966 29.2023 21.626C28.6243 21.286 28.1823 20.7703 27.8763 20.079C27.5703 19.3763 27.4173 18.4923 27.4173 17.427C27.4173 16.3503 27.576 15.4663 27.8933 14.775C28.222 14.0837 28.6753 13.568 29.2533 13.228C29.8313 12.888 30.5056 12.718 31.2763 12.718C32.1376 12.718 32.9083 12.9107 33.5883 13.296C34.2796 13.6813 34.8236 14.2253 35.2203 14.928C35.6283 15.6307 35.8323 16.4637 35.8323 17.427C35.8323 18.379 35.6283 19.2063 35.2203 19.909C34.8236 20.6117 34.2796 21.1613 33.5883 21.558C32.9083 21.9433 32.1376 22.136 31.2763 22.136ZM25.8703 22V9.386H28.5223V14.707L28.3523 17.41L28.4033 20.13V22H25.8703ZM30.8173 19.96C31.2593 19.96 31.6503 19.858 31.9903 19.654C32.3416 19.45 32.6193 19.161 32.8233 18.787C33.0386 18.4017 33.1463 17.9483 33.1463 17.427C33.1463 16.8943 33.0386 16.441 32.8233 16.067C32.6193 15.693 32.3416 15.404 31.9903 15.2C31.6503 14.996 31.2593 14.894 30.8173 14.894C30.3753 14.894 29.9786 14.996 29.6273 15.2C29.276 15.404 28.9983 15.693 28.7943 16.067C28.5903 16.441 28.4883 16.8943 28.4883 17.427C28.4883 17.9483 28.5903 18.4017 28.7943 18.787C28.9983 19.161 29.276 19.45 29.6273 19.654C29.9786 19.858 30.3753 19.96 30.8173 19.96ZM42.4682 22V20.215L42.2982 19.824V16.628C42.2982 16.0613 42.1225 15.6193 41.7712 15.302C41.4312 14.9847 40.9042 14.826 40.1902 14.826C39.7028 14.826 39.2212 14.9053 38.7452 15.064C38.2805 15.2113 37.8838 15.4153 37.5552 15.676L36.6032 13.823C37.1018 13.4717 37.7025 13.1997 38.4052 13.007C39.1078 12.8143 39.8218 12.718 40.5472 12.718C41.9412 12.718 43.0235 13.0467 43.7942 13.704C44.5648 14.3613 44.9502 15.387 44.9502 16.781V22H42.4682ZM39.6802 22.136C38.9662 22.136 38.3542 22.017 37.8442 21.779C37.3342 21.5297 36.9432 21.1953 36.6712 20.776C36.3992 20.3567 36.2632 19.8863 36.2632 19.365C36.2632 18.821 36.3935 18.345 36.6542 17.937C36.9262 17.529 37.3512 17.2117 37.9292 16.985C38.5072 16.747 39.2608 16.628 40.1902 16.628H42.6212V18.175H40.4792C39.8558 18.175 39.4252 18.277 39.1872 18.481C38.9605 18.685 38.8472 18.94 38.8472 19.246C38.8472 19.586 38.9775 19.858 39.2382 20.062C39.5102 20.2547 39.8785 20.351 40.3432 20.351C40.7852 20.351 41.1818 20.249 41.5332 20.045C41.8845 19.8297 42.1395 19.518 42.2982 19.11L42.7062 20.334C42.5135 20.9233 42.1622 21.371 41.6522 21.677C41.1422 21.983 40.4848 22.136 39.6802 22.136ZM62.6778 12.718C63.4032 12.718 64.0435 12.8653 64.5988 13.16C65.1655 13.4433 65.6075 13.8853 65.9248 14.486C66.2535 15.0753 66.4178 15.8347 66.4178 16.764V22H63.7658V17.172C63.7658 16.4353 63.6128 15.8913 63.3068 15.54C63.0008 15.1887 62.5702 15.013 62.0148 15.013C61.6295 15.013 61.2838 15.1037 60.9778 15.285C60.6718 15.455 60.4338 15.7157 60.2638 16.067C60.0938 16.4183 60.0088 16.866 60.0088 17.41V22H57.3568V17.172C57.3568 16.4353 57.2038 15.8913 56.8978 15.54C56.6032 15.1887 56.1782 15.013 55.6228 15.013C55.2375 15.013 54.8918 15.1037 54.5858 15.285C54.2798 15.455 54.0418 15.7157 53.8718 16.067C53.7018 16.4183 53.6168 16.866 53.6168 17.41V22H50.9648V12.854H53.4978V15.353L53.0218 14.622C53.3392 13.9987 53.7868 13.5283 54.3648 13.211C54.9542 12.8823 55.6228 12.718 56.3708 12.718C57.2095 12.718 57.9405 12.9333 58.5638 13.364C59.1985 13.7833 59.6178 14.4293 59.8218 15.302L58.8868 15.047C59.1928 14.333 59.6802 13.7663 60.3488 13.347C61.0288 12.9277 61.8052 12.718 62.6778 12.718ZM73.8049 22V20.215L73.6349 19.824V16.628C73.6349 16.0613 73.4592 15.6193 73.1079 15.302C72.7679 14.9847 72.2409 14.826 71.5269 14.826C71.0396 14.826 70.5579 14.9053 70.0819 15.064C69.6172 15.2113 69.2206 15.4153 68.8919 15.676L67.9399 13.823C68.4386 13.4717 69.0392 13.1997 69.7419 13.007C70.4446 12.8143 71.1586 12.718 71.8839 12.718C73.2779 12.718 74.3602 13.0467 75.1309 13.704C75.9016 14.3613 76.2869 15.387 76.2869 16.781V22H73.8049ZM71.0169 22.136C70.3029 22.136 69.6909 22.017 69.1809 21.779C68.6709 21.5297 68.2799 21.1953 68.0079 20.776C67.7359 20.3567 67.5999 19.8863 67.5999 19.365C67.5999 18.821 67.7302 18.345 67.9909 17.937C68.2629 17.529 68.6879 17.2117 69.2659 16.985C69.8439 16.747 70.5976 16.628 71.5269 16.628H73.9579V18.175H71.8159C71.1926 18.175 70.7619 18.277 70.5239 18.481C70.2972 18.685 70.1839 18.94 70.1839 19.246C70.1839 19.586 70.3142 19.858 70.5749 20.062C70.8469 20.2547 71.2152 20.351 71.6799 20.351C72.1219 20.351 72.5186 20.249 72.8699 20.045C73.2212 19.8297 73.4762 19.518 73.6349 19.11L74.0429 20.334C73.8502 20.9233 73.4989 21.371 72.9889 21.677C72.4789 21.983 71.8216 22.136 71.0169 22.136ZM78.0871 22V12.854H80.7391V22H78.0871ZM79.4131 11.579C78.9257 11.579 78.5291 11.4373 78.2231 11.154C77.9171 10.8707 77.7641 10.5193 77.7641 10.1C77.7641 9.68067 77.9171 9.32933 78.2231 9.046C78.5291 8.76267 78.9257 8.621 79.4131 8.621C79.9004 8.621 80.2971 8.757 80.6031 9.029C80.9091 9.28967 81.0621 9.62967 81.0621 10.049C81.0621 10.491 80.9091 10.8593 80.6031 11.154C80.3084 11.4373 79.9117 11.579 79.4131 11.579ZM85.6774 22.136C84.8954 22.136 84.1417 22.0453 83.4164 21.864C82.7024 21.6713 82.1357 21.4333 81.7164 21.15L82.6004 19.246C83.0197 19.5067 83.5127 19.722 84.0794 19.892C84.6574 20.0507 85.224 20.13 85.7794 20.13C86.3914 20.13 86.822 20.0563 87.0714 19.909C87.332 19.7617 87.4624 19.5577 87.4624 19.297C87.4624 19.0817 87.3604 18.923 87.1564 18.821C86.9637 18.7077 86.703 18.6227 86.3744 18.566C86.0457 18.5093 85.683 18.4527 85.2864 18.396C84.901 18.3393 84.51 18.2657 84.1134 18.175C83.7167 18.073 83.354 17.9257 83.0254 17.733C82.6967 17.5403 82.4304 17.2797 82.2264 16.951C82.0337 16.6223 81.9374 16.1973 81.9374 15.676C81.9374 15.098 82.1017 14.588 82.4304 14.146C82.7704 13.704 83.2577 13.3583 83.8924 13.109C84.527 12.8483 85.2864 12.718 86.1704 12.718C86.7937 12.718 87.4284 12.786 88.0744 12.922C88.7204 13.058 89.2587 13.2563 89.6894 13.517L88.8054 15.404C88.3634 15.1433 87.9157 14.9677 87.4624 14.877C87.0204 14.775 86.5897 14.724 86.1704 14.724C85.581 14.724 85.1504 14.8033 84.8784 14.962C84.6064 15.1207 84.4704 15.3247 84.4704 15.574C84.4704 15.8007 84.5667 15.9707 84.7594 16.084C84.9634 16.1973 85.2297 16.288 85.5584 16.356C85.887 16.424 86.244 16.4863 86.6294 16.543C87.026 16.5883 87.4227 16.662 87.8194 16.764C88.216 16.866 88.573 17.0133 88.8904 17.206C89.219 17.3873 89.4854 17.6423 89.6894 17.971C89.8934 18.2883 89.9954 18.7077 89.9954 19.229C89.9954 19.7957 89.8254 20.3 89.4854 20.742C89.1454 21.1727 88.6524 21.5127 88.0064 21.762C87.3717 22.0113 86.5954 22.136 85.6774 22.136Z" fill="white"/>
<path d="M117.4 11L123 16.2L117.4 21.4" stroke="white" stroke-width="2" stroke-linecap="square" stroke-linejoin="bevel"/>
<path d="M111 15.9857H122.2" stroke="white" stroke-width="2" stroke-linecap="square" stroke-linejoin="bevel"/>
</g>
<defs>
<clipPath id="clip0_232_1890">
<rect width="123" height="32" fill="white"/>
</clipPath>
</defs>
</svg>
